<mxfile host="Electron" agent="Mozilla/5.0 (Windows NT 10.0; Win64; x64) AppleWebKit/537.36 (KHTML, like Gecko) draw.io/27.0.9 Chrome/134.0.6998.205 Electron/35.4.0 Safari/537.36" version="27.0.9">
  <diagram name="Страница — 1" id="rnLnBbXY9UPApGX-LdZm">
    <mxGraphModel dx="1678" dy="999" grid="1" gridSize="10" guides="1" tooltips="1" connect="1" arrows="1" fold="1" page="1" pageScale="1" pageWidth="827" pageHeight="1169" math="0" shadow="0">
      <root>
        <mxCell id="0" />
        <mxCell id="1" parent="0" />
        <mxCell id="LpmMic6K0dAvIOug83Dr-1" value="" style="ellipse;html=1;shape=endState;fillColor=#000000;strokeColor=none;fontFamily=Times New Roman;fontSize=12;" parent="1" vertex="1">
          <mxGeometry x="384" y="20" width="30" height="30" as="geometry" />
        </mxCell>
        <mxCell id="LpmMic6K0dAvIOug83Dr-2" value="" style="endArrow=classic;html=1;rounded=0;exitX=0.505;exitY=0.81;exitDx=0;exitDy=0;exitPerimeter=0;fontFamily=Times New Roman;fontSize=12;entryX=0.5;entryY=0;entryDx=0;entryDy=0;" parent="1" source="LpmMic6K0dAvIOug83Dr-1" target="LpmMic6K0dAvIOug83Dr-4" edge="1">
          <mxGeometry width="50" height="50" relative="1" as="geometry">
            <mxPoint x="390" y="80" as="sourcePoint" />
            <mxPoint x="399" y="80" as="targetPoint" />
          </mxGeometry>
        </mxCell>
        <mxCell id="LpmMic6K0dAvIOug83Dr-3" value="Аутентификация" style="shape=umlFrame;whiteSpace=wrap;html=1;pointerEvents=0;width=127;height=30;fontFamily=Times New Roman;fontSize=12;" parent="1" vertex="1">
          <mxGeometry x="233.5" y="80" width="331" height="440" as="geometry" />
        </mxCell>
        <mxCell id="LpmMic6K0dAvIOug83Dr-4" value="&lt;font&gt;Ввод данных для входа или регистрации&lt;/font&gt;" style="rounded=1;whiteSpace=wrap;html=1;fontFamily=Times New Roman;fontSize=12;" parent="1" vertex="1">
          <mxGeometry x="318.25" y="120" width="160" height="50" as="geometry" />
        </mxCell>
        <mxCell id="LpmMic6K0dAvIOug83Dr-5" value="Есть аккаунт?" style="shape=hexagon;perimeter=hexagonPerimeter2;whiteSpace=wrap;html=1;fixedSize=1;fontFamily=Times New Roman;fontSize=12;" parent="1" vertex="1">
          <mxGeometry x="342.12" y="200" width="112.25" height="40" as="geometry" />
        </mxCell>
        <mxCell id="LpmMic6K0dAvIOug83Dr-6" value="Запрос на вход" style="rounded=1;whiteSpace=wrap;html=1;fontFamily=Times New Roman;fontSize=12;" parent="1" vertex="1">
          <mxGeometry x="248.5" y="260" width="111.5" height="40" as="geometry" />
        </mxCell>
        <mxCell id="LpmMic6K0dAvIOug83Dr-7" value="&lt;font&gt;Запрос на регистрацию&lt;/font&gt;" style="rounded=1;whiteSpace=wrap;html=1;fontFamily=Times New Roman;fontSize=12;" parent="1" vertex="1">
          <mxGeometry x="449.5" y="260" width="100.5" height="40" as="geometry" />
        </mxCell>
        <mxCell id="LpmMic6K0dAvIOug83Dr-8" value="Получение токенов доступа" style="rounded=1;whiteSpace=wrap;html=1;fontFamily=Times New Roman;fontSize=12;" parent="1" vertex="1">
          <mxGeometry x="240" y="330" width="129" height="60" as="geometry" />
        </mxCell>
        <mxCell id="LpmMic6K0dAvIOug83Dr-9" value="Получение кода подтверждения" style="rounded=1;whiteSpace=wrap;html=1;fontFamily=Times New Roman;fontSize=12;" parent="1" vertex="1">
          <mxGeometry x="444.5" y="330" width="110.5" height="40" as="geometry" />
        </mxCell>
        <mxCell id="LpmMic6K0dAvIOug83Dr-10" value="Подтверждение кода" style="rounded=1;whiteSpace=wrap;html=1;fontFamily=Times New Roman;fontSize=12;" parent="1" vertex="1">
          <mxGeometry x="444.5" y="400" width="110.5" height="40" as="geometry" />
        </mxCell>
        <mxCell id="LpmMic6K0dAvIOug83Dr-11" value="" style="rhombus;whiteSpace=wrap;html=1;fontFamily=Times New Roman;fontSize=12;" parent="1" vertex="1">
          <mxGeometry x="379" y="460" width="40" height="40" as="geometry" />
        </mxCell>
        <mxCell id="LpmMic6K0dAvIOug83Dr-12" value="" style="endArrow=classic;html=1;rounded=0;exitX=0.5;exitY=1;exitDx=0;exitDy=0;entryX=0.5;entryY=0;entryDx=0;entryDy=0;fontFamily=Times New Roman;fontSize=12;" parent="1" source="LpmMic6K0dAvIOug83Dr-4" target="LpmMic6K0dAvIOug83Dr-5" edge="1">
          <mxGeometry width="50" height="50" relative="1" as="geometry">
            <mxPoint x="310" y="210" as="sourcePoint" />
            <mxPoint x="360" y="160" as="targetPoint" />
          </mxGeometry>
        </mxCell>
        <mxCell id="LpmMic6K0dAvIOug83Dr-13" value="" style="endArrow=classic;html=1;rounded=0;exitX=0;exitY=0.5;exitDx=0;exitDy=0;fontFamily=Times New Roman;fontSize=12;" parent="1" source="LpmMic6K0dAvIOug83Dr-5" edge="1">
          <mxGeometry width="50" height="50" relative="1" as="geometry">
            <mxPoint x="340" y="360" as="sourcePoint" />
            <mxPoint x="300" y="260" as="targetPoint" />
            <Array as="points">
              <mxPoint x="300" y="220" />
            </Array>
          </mxGeometry>
        </mxCell>
        <mxCell id="LpmMic6K0dAvIOug83Dr-14" value="" style="endArrow=classic;html=1;rounded=0;exitX=1;exitY=0.5;exitDx=0;exitDy=0;fontFamily=Times New Roman;fontSize=12;" parent="1" source="LpmMic6K0dAvIOug83Dr-5" target="LpmMic6K0dAvIOug83Dr-7" edge="1">
          <mxGeometry width="50" height="50" relative="1" as="geometry">
            <mxPoint x="450" y="330" as="sourcePoint" />
            <mxPoint x="500" y="280" as="targetPoint" />
            <Array as="points">
              <mxPoint x="500" y="220" />
            </Array>
          </mxGeometry>
        </mxCell>
        <mxCell id="LpmMic6K0dAvIOug83Dr-15" value="" style="endArrow=classic;html=1;rounded=0;exitX=0.5;exitY=1;exitDx=0;exitDy=0;entryX=0.5;entryY=0;entryDx=0;entryDy=0;fontFamily=Times New Roman;fontSize=12;" parent="1" source="LpmMic6K0dAvIOug83Dr-6" target="LpmMic6K0dAvIOug83Dr-8" edge="1">
          <mxGeometry width="50" height="50" relative="1" as="geometry">
            <mxPoint x="330" y="300" as="sourcePoint" />
            <mxPoint x="380" y="250" as="targetPoint" />
          </mxGeometry>
        </mxCell>
        <mxCell id="LpmMic6K0dAvIOug83Dr-17" value="" style="endArrow=classic;html=1;rounded=0;exitX=0.5;exitY=1;exitDx=0;exitDy=0;entryX=0.5;entryY=0;entryDx=0;entryDy=0;fontFamily=Times New Roman;fontSize=12;" parent="1" source="LpmMic6K0dAvIOug83Dr-7" target="LpmMic6K0dAvIOug83Dr-9" edge="1">
          <mxGeometry width="50" height="50" relative="1" as="geometry">
            <mxPoint x="370" y="300" as="sourcePoint" />
            <mxPoint x="420" y="250" as="targetPoint" />
          </mxGeometry>
        </mxCell>
        <mxCell id="LpmMic6K0dAvIOug83Dr-18" value="" style="endArrow=classic;html=1;rounded=0;exitX=0.5;exitY=1;exitDx=0;exitDy=0;entryX=0.5;entryY=0;entryDx=0;entryDy=0;fontFamily=Times New Roman;fontSize=12;" parent="1" source="LpmMic6K0dAvIOug83Dr-9" target="LpmMic6K0dAvIOug83Dr-10" edge="1">
          <mxGeometry width="50" height="50" relative="1" as="geometry">
            <mxPoint x="320" y="380" as="sourcePoint" />
            <mxPoint x="370" y="330" as="targetPoint" />
          </mxGeometry>
        </mxCell>
        <mxCell id="LpmMic6K0dAvIOug83Dr-19" value="" style="endArrow=classic;html=1;rounded=0;exitX=0.472;exitY=1.012;exitDx=0;exitDy=0;entryX=0;entryY=0.5;entryDx=0;entryDy=0;exitPerimeter=0;fontFamily=Times New Roman;fontSize=12;" parent="1" source="LpmMic6K0dAvIOug83Dr-8" target="LpmMic6K0dAvIOug83Dr-11" edge="1">
          <mxGeometry width="50" height="50" relative="1" as="geometry">
            <mxPoint x="310" y="360" as="sourcePoint" />
            <mxPoint x="360" y="310" as="targetPoint" />
            <Array as="points">
              <mxPoint x="300" y="480" />
            </Array>
          </mxGeometry>
        </mxCell>
        <mxCell id="LpmMic6K0dAvIOug83Dr-20" value="" style="endArrow=classic;html=1;rounded=0;exitX=0.5;exitY=1;exitDx=0;exitDy=0;entryX=1;entryY=0.5;entryDx=0;entryDy=0;fontFamily=Times New Roman;fontSize=12;" parent="1" source="LpmMic6K0dAvIOug83Dr-10" target="LpmMic6K0dAvIOug83Dr-11" edge="1">
          <mxGeometry width="50" height="50" relative="1" as="geometry">
            <mxPoint x="350" y="470" as="sourcePoint" />
            <mxPoint x="400" y="420" as="targetPoint" />
            <Array as="points">
              <mxPoint x="500" y="480" />
            </Array>
          </mxGeometry>
        </mxCell>
        <mxCell id="LpmMic6K0dAvIOug83Dr-21" value="Работа с документами" style="shape=umlFrame;whiteSpace=wrap;html=1;pointerEvents=0;width=147;height=40;fontFamily=Times New Roman;fontSize=12;" parent="1" vertex="1">
          <mxGeometry x="233.5" y="550" width="331" height="540" as="geometry" />
        </mxCell>
        <mxCell id="LpmMic6K0dAvIOug83Dr-22" value="Просмотр списка документов" style="rounded=1;whiteSpace=wrap;html=1;fontFamily=Times New Roman;fontSize=12;" parent="1" vertex="1">
          <mxGeometry x="323.75" y="600" width="156.5" height="40" as="geometry" />
        </mxCell>
        <mxCell id="LpmMic6K0dAvIOug83Dr-23" value="Загрузить новый?" style="shape=hexagon;perimeter=hexagonPerimeter2;whiteSpace=wrap;html=1;fixedSize=1;fontFamily=Times New Roman;fontSize=12;" parent="1" vertex="1">
          <mxGeometry x="351.5" y="670" width="101" height="40" as="geometry" />
        </mxCell>
        <mxCell id="LpmMic6K0dAvIOug83Dr-25" value="Загрузка pdf" style="rounded=1;whiteSpace=wrap;html=1;fontFamily=Times New Roman;fontSize=12;" parent="1" vertex="1">
          <mxGeometry x="352" y="740" width="100" height="30" as="geometry" />
        </mxCell>
        <mxCell id="LpmMic6K0dAvIOug83Dr-27" value="Получение кода подтверждения" style="rounded=1;whiteSpace=wrap;html=1;fontFamily=Times New Roman;fontSize=12;" parent="1" vertex="1">
          <mxGeometry x="342" y="940" width="118" height="50" as="geometry" />
        </mxCell>
        <mxCell id="LpmMic6K0dAvIOug83Dr-29" value="" style="rhombus;whiteSpace=wrap;html=1;fontFamily=Times New Roman;fontSize=12;" parent="1" vertex="1">
          <mxGeometry x="379" y="1020" width="40" height="40" as="geometry" />
        </mxCell>
        <mxCell id="LpmMic6K0dAvIOug83Dr-30" value="" style="endArrow=classic;html=1;rounded=0;entryX=0.48;entryY=0;entryDx=0;entryDy=0;exitX=0.489;exitY=1.001;exitDx=0;exitDy=0;exitPerimeter=0;fontFamily=Times New Roman;fontSize=12;entryPerimeter=0;" parent="1" source="LpmMic6K0dAvIOug83Dr-22" target="LpmMic6K0dAvIOug83Dr-23" edge="1">
          <mxGeometry width="50" height="50" relative="1" as="geometry">
            <mxPoint x="400" y="630" as="sourcePoint" />
            <mxPoint x="400.39999999999986" y="660" as="targetPoint" />
          </mxGeometry>
        </mxCell>
        <mxCell id="LpmMic6K0dAvIOug83Dr-39" value="Скачать/удалить?" style="shape=hexagon;perimeter=hexagonPerimeter2;whiteSpace=wrap;html=1;fixedSize=1;fontFamily=Times New Roman;fontSize=12;" parent="1" vertex="1">
          <mxGeometry x="350.5" y="870" width="101" height="40" as="geometry" />
        </mxCell>
        <mxCell id="LpmMic6K0dAvIOug83Dr-40" value="" style="endArrow=classic;html=1;rounded=0;exitX=0.475;exitY=0.987;exitDx=0;exitDy=0;entryX=0.477;entryY=0.008;entryDx=0;entryDy=0;exitPerimeter=0;entryPerimeter=0;fontFamily=Times New Roman;fontSize=12;" parent="1" source="LpmMic6K0dAvIOug83Dr-23" target="LpmMic6K0dAvIOug83Dr-25" edge="1">
          <mxGeometry width="50" height="50" relative="1" as="geometry">
            <mxPoint x="290" y="730" as="sourcePoint" />
            <mxPoint x="340" y="680" as="targetPoint" />
          </mxGeometry>
        </mxCell>
        <mxCell id="LpmMic6K0dAvIOug83Dr-41" value="" style="rhombus;whiteSpace=wrap;html=1;fontFamily=Times New Roman;fontSize=12;" parent="1" vertex="1">
          <mxGeometry x="380.5" y="800" width="40" height="40" as="geometry" />
        </mxCell>
        <mxCell id="LpmMic6K0dAvIOug83Dr-42" value="" style="endArrow=classic;html=1;rounded=0;exitX=1;exitY=0.5;exitDx=0;exitDy=0;entryX=1;entryY=0.5;entryDx=0;entryDy=0;fontFamily=Times New Roman;fontSize=12;" parent="1" source="LpmMic6K0dAvIOug83Dr-23" target="LpmMic6K0dAvIOug83Dr-41" edge="1">
          <mxGeometry width="50" height="50" relative="1" as="geometry">
            <mxPoint x="150" y="870" as="sourcePoint" />
            <mxPoint x="200" y="820" as="targetPoint" />
            <Array as="points">
              <mxPoint x="500" y="690" />
              <mxPoint x="500" y="820" />
            </Array>
          </mxGeometry>
        </mxCell>
        <mxCell id="LpmMic6K0dAvIOug83Dr-43" value="" style="endArrow=classic;html=1;rounded=0;exitX=0.484;exitY=1.015;exitDx=0;exitDy=0;entryX=0.5;entryY=0;entryDx=0;entryDy=0;exitPerimeter=0;fontFamily=Times New Roman;fontSize=12;" parent="1" source="LpmMic6K0dAvIOug83Dr-25" target="LpmMic6K0dAvIOug83Dr-41" edge="1">
          <mxGeometry width="50" height="50" relative="1" as="geometry">
            <mxPoint x="150" y="870" as="sourcePoint" />
            <mxPoint x="200" y="820" as="targetPoint" />
          </mxGeometry>
        </mxCell>
        <mxCell id="LpmMic6K0dAvIOug83Dr-44" value="" style="endArrow=classic;html=1;rounded=0;exitX=0.5;exitY=1;exitDx=0;exitDy=0;entryX=0.487;entryY=0.001;entryDx=0;entryDy=0;entryPerimeter=0;fontFamily=Times New Roman;fontSize=12;" parent="1" source="LpmMic6K0dAvIOug83Dr-41" target="LpmMic6K0dAvIOug83Dr-39" edge="1">
          <mxGeometry width="50" height="50" relative="1" as="geometry">
            <mxPoint x="280" y="1000" as="sourcePoint" />
            <mxPoint x="330" y="950" as="targetPoint" />
          </mxGeometry>
        </mxCell>
        <mxCell id="LpmMic6K0dAvIOug83Dr-45" value="" style="endArrow=classic;html=1;rounded=0;exitX=0.485;exitY=1.007;exitDx=0;exitDy=0;entryX=0.48;entryY=0;entryDx=0;entryDy=0;entryPerimeter=0;exitPerimeter=0;fontFamily=Times New Roman;fontSize=12;" parent="1" source="LpmMic6K0dAvIOug83Dr-39" target="LpmMic6K0dAvIOug83Dr-27" edge="1">
          <mxGeometry width="50" height="50" relative="1" as="geometry">
            <mxPoint x="400.25" y="900" as="sourcePoint" />
            <mxPoint x="400.75" y="930" as="targetPoint" />
          </mxGeometry>
        </mxCell>
        <mxCell id="LpmMic6K0dAvIOug83Dr-46" value="" style="endArrow=classic;html=1;rounded=0;exitX=0.483;exitY=1.02;exitDx=0;exitDy=0;exitPerimeter=0;entryX=0.5;entryY=0;entryDx=0;entryDy=0;fontFamily=Times New Roman;fontSize=12;" parent="1" source="LpmMic6K0dAvIOug83Dr-27" target="LpmMic6K0dAvIOug83Dr-29" edge="1">
          <mxGeometry width="50" height="50" relative="1" as="geometry">
            <mxPoint x="340" y="1040" as="sourcePoint" />
            <mxPoint x="390" y="990" as="targetPoint" />
          </mxGeometry>
        </mxCell>
        <mxCell id="LpmMic6K0dAvIOug83Dr-47" value="" style="endArrow=classic;html=1;rounded=0;exitX=1;exitY=0.5;exitDx=0;exitDy=0;entryX=1;entryY=0.5;entryDx=0;entryDy=0;fontFamily=Times New Roman;fontSize=12;" parent="1" source="LpmMic6K0dAvIOug83Dr-39" target="LpmMic6K0dAvIOug83Dr-29" edge="1">
          <mxGeometry width="50" height="50" relative="1" as="geometry">
            <mxPoint x="330" y="990" as="sourcePoint" />
            <mxPoint x="380" y="940" as="targetPoint" />
            <Array as="points">
              <mxPoint x="500" y="890" />
              <mxPoint x="500" y="1040" />
            </Array>
          </mxGeometry>
        </mxCell>
        <mxCell id="LpmMic6K0dAvIOug83Dr-48" value="Работа с моделями" style="shape=umlFrame;whiteSpace=wrap;html=1;pointerEvents=0;width=147;height=30;fontFamily=Times New Roman;fontSize=12;" parent="1" vertex="1">
          <mxGeometry x="233.5" y="1120" width="331" height="510" as="geometry" />
        </mxCell>
        <mxCell id="LpmMic6K0dAvIOug83Dr-49" value="Выбор модели" style="rounded=1;whiteSpace=wrap;html=1;fontFamily=Times New Roman;fontSize=12;" parent="1" vertex="1">
          <mxGeometry x="323.75" y="1160" width="156.5" height="40" as="geometry" />
        </mxCell>
        <mxCell id="LpmMic6K0dAvIOug83Dr-50" value="Извлечь параметры из документа?" style="shape=hexagon;perimeter=hexagonPerimeter2;whiteSpace=wrap;html=1;fixedSize=1;fontFamily=Times New Roman;fontSize=12;" parent="1" vertex="1">
          <mxGeometry x="315.37" y="1230" width="174.63" height="40" as="geometry" />
        </mxCell>
        <mxCell id="LpmMic6K0dAvIOug83Dr-51" value="Отправка LLM" style="rounded=1;whiteSpace=wrap;html=1;fontFamily=Times New Roman;fontSize=12;" parent="1" vertex="1">
          <mxGeometry x="240.75" y="1300" width="99.25" height="40" as="geometry" />
        </mxCell>
        <mxCell id="LpmMic6K0dAvIOug83Dr-52" value="Запуск расчета" style="rounded=1;whiteSpace=wrap;html=1;fontFamily=Times New Roman;fontSize=12;" parent="1" vertex="1">
          <mxGeometry x="351.75" y="1500" width="98.25" height="40" as="geometry" />
        </mxCell>
        <mxCell id="LpmMic6K0dAvIOug83Dr-54" value="" style="endArrow=classic;html=1;rounded=0;entryX=0.5;entryY=0;entryDx=0;entryDy=0;exitX=0.489;exitY=1.001;exitDx=0;exitDy=0;exitPerimeter=0;fontFamily=Times New Roman;fontSize=12;" parent="1" source="LpmMic6K0dAvIOug83Dr-49" edge="1">
          <mxGeometry width="50" height="50" relative="1" as="geometry">
            <mxPoint x="400" y="1200" as="sourcePoint" />
            <mxPoint x="400.39999999999986" y="1230" as="targetPoint" />
          </mxGeometry>
        </mxCell>
        <mxCell id="LpmMic6K0dAvIOug83Dr-56" value="" style="endArrow=classic;html=1;rounded=0;exitX=0;exitY=0.5;exitDx=0;exitDy=0;entryX=0.5;entryY=0;entryDx=0;entryDy=0;fontFamily=Times New Roman;fontSize=12;" parent="1" source="LpmMic6K0dAvIOug83Dr-50" target="LpmMic6K0dAvIOug83Dr-51" edge="1">
          <mxGeometry width="50" height="50" relative="1" as="geometry">
            <mxPoint x="290" y="1300" as="sourcePoint" />
            <mxPoint x="340" y="1250" as="targetPoint" />
            <Array as="points">
              <mxPoint x="290.75" y="1250" />
            </Array>
          </mxGeometry>
        </mxCell>
        <mxCell id="LpmMic6K0dAvIOug83Dr-66" value="Получение значений" style="rounded=1;whiteSpace=wrap;html=1;fontFamily=Times New Roman;fontSize=12;" parent="1" vertex="1">
          <mxGeometry x="240.75" y="1370" width="99.25" height="40" as="geometry" />
        </mxCell>
        <mxCell id="LpmMic6K0dAvIOug83Dr-67" value="" style="endArrow=classic;html=1;rounded=0;exitX=0.495;exitY=1.007;exitDx=0;exitDy=0;entryX=0.491;entryY=-0.003;entryDx=0;entryDy=0;exitPerimeter=0;entryPerimeter=0;fontFamily=Times New Roman;fontSize=12;" parent="1" source="LpmMic6K0dAvIOug83Dr-51" target="LpmMic6K0dAvIOug83Dr-66" edge="1">
          <mxGeometry width="50" height="50" relative="1" as="geometry">
            <mxPoint x="170.75" y="1440" as="sourcePoint" />
            <mxPoint x="220.75" y="1390" as="targetPoint" />
          </mxGeometry>
        </mxCell>
        <mxCell id="LpmMic6K0dAvIOug83Dr-68" value="" style="rhombus;whiteSpace=wrap;html=1;fontFamily=Times New Roman;fontSize=12;" parent="1" vertex="1">
          <mxGeometry x="380.5" y="1430" width="40" height="40" as="geometry" />
        </mxCell>
        <mxCell id="LpmMic6K0dAvIOug83Dr-69" value="" style="endArrow=classic;html=1;rounded=0;exitX=0.5;exitY=1;exitDx=0;exitDy=0;entryX=0;entryY=0.5;entryDx=0;entryDy=0;fontFamily=Times New Roman;fontSize=12;" parent="1" source="LpmMic6K0dAvIOug83Dr-66" target="LpmMic6K0dAvIOug83Dr-68" edge="1">
          <mxGeometry width="50" height="50" relative="1" as="geometry">
            <mxPoint x="200.75" y="1540" as="sourcePoint" />
            <mxPoint x="250.75" y="1490" as="targetPoint" />
            <Array as="points">
              <mxPoint x="290" y="1450" />
            </Array>
          </mxGeometry>
        </mxCell>
        <mxCell id="LpmMic6K0dAvIOug83Dr-70" value="Ввод значений" style="rounded=1;whiteSpace=wrap;html=1;fontFamily=Times New Roman;fontSize=12;" parent="1" vertex="1">
          <mxGeometry x="460" y="1300" width="96.75" height="40" as="geometry" />
        </mxCell>
        <mxCell id="LpmMic6K0dAvIOug83Dr-71" value="" style="endArrow=classic;html=1;rounded=0;exitX=1;exitY=0.5;exitDx=0;exitDy=0;entryX=0.577;entryY=0.002;entryDx=0;entryDy=0;entryPerimeter=0;fontFamily=Times New Roman;fontSize=12;" parent="1" source="LpmMic6K0dAvIOug83Dr-50" target="LpmMic6K0dAvIOug83Dr-70" edge="1">
          <mxGeometry width="50" height="50" relative="1" as="geometry">
            <mxPoint x="170.75" y="1280" as="sourcePoint" />
            <mxPoint x="220.75" y="1230" as="targetPoint" />
            <Array as="points">
              <mxPoint x="516" y="1250" />
            </Array>
          </mxGeometry>
        </mxCell>
        <mxCell id="LpmMic6K0dAvIOug83Dr-72" value="" style="endArrow=classic;html=1;rounded=0;exitX=0.572;exitY=0.978;exitDx=0;exitDy=0;exitPerimeter=0;entryX=1;entryY=0.5;entryDx=0;entryDy=0;fontFamily=Times New Roman;fontSize=12;" parent="1" source="LpmMic6K0dAvIOug83Dr-70" target="LpmMic6K0dAvIOug83Dr-68" edge="1">
          <mxGeometry width="50" height="50" relative="1" as="geometry">
            <mxPoint x="260.75" y="1370" as="sourcePoint" />
            <mxPoint x="310.75" y="1320" as="targetPoint" />
            <Array as="points">
              <mxPoint x="515" y="1450" />
            </Array>
          </mxGeometry>
        </mxCell>
        <mxCell id="LpmMic6K0dAvIOug83Dr-73" value="Сохранение результата" style="rounded=1;whiteSpace=wrap;html=1;fontFamily=Times New Roman;fontSize=12;" parent="1" vertex="1">
          <mxGeometry x="353.88" y="1570" width="96.75" height="40" as="geometry" />
        </mxCell>
        <mxCell id="LpmMic6K0dAvIOug83Dr-74" value="" style="endArrow=classic;html=1;rounded=0;exitX=0.5;exitY=1;exitDx=0;exitDy=0;entryX=0.489;entryY=0.004;entryDx=0;entryDy=0;entryPerimeter=0;fontFamily=Times New Roman;fontSize=12;" parent="1" source="LpmMic6K0dAvIOug83Dr-68" target="LpmMic6K0dAvIOug83Dr-52" edge="1">
          <mxGeometry width="50" height="50" relative="1" as="geometry">
            <mxPoint x="250.75" y="1530" as="sourcePoint" />
            <mxPoint x="300.75" y="1480" as="targetPoint" />
          </mxGeometry>
        </mxCell>
        <mxCell id="LpmMic6K0dAvIOug83Dr-75" value="" style="endArrow=classic;html=1;rounded=0;exitX=0.483;exitY=0.989;exitDx=0;exitDy=0;exitPerimeter=0;entryX=0.469;entryY=-0.004;entryDx=0;entryDy=0;entryPerimeter=0;fontFamily=Times New Roman;fontSize=12;" parent="1" source="LpmMic6K0dAvIOug83Dr-52" target="LpmMic6K0dAvIOug83Dr-73" edge="1">
          <mxGeometry width="50" height="50" relative="1" as="geometry">
            <mxPoint x="330.75" y="1550" as="sourcePoint" />
            <mxPoint x="380.75" y="1500" as="targetPoint" />
          </mxGeometry>
        </mxCell>
        <mxCell id="LpmMic6K0dAvIOug83Dr-76" value="Чат с LLM" style="shape=umlFrame;whiteSpace=wrap;html=1;pointerEvents=0;width=137;height=30;fontFamily=Times New Roman;fontSize=12;" parent="1" vertex="1">
          <mxGeometry x="225.75" y="1660" width="331" height="360" as="geometry" />
        </mxCell>
        <mxCell id="LpmMic6K0dAvIOug83Dr-78" value="Требуется пояснение?" style="shape=hexagon;perimeter=hexagonPerimeter2;whiteSpace=wrap;html=1;fixedSize=1;fontFamily=Times New Roman;fontSize=12;" parent="1" vertex="1">
          <mxGeometry x="339.56" y="1710" width="107.38" height="40" as="geometry" />
        </mxCell>
        <mxCell id="LpmMic6K0dAvIOug83Dr-80" value="Получение кода подтверждения" style="rounded=1;whiteSpace=wrap;html=1;fontFamily=Times New Roman;fontSize=12;" parent="1" vertex="1">
          <mxGeometry x="337.44" y="1870" width="110.63" height="60" as="geometry" />
        </mxCell>
        <mxCell id="LpmMic6K0dAvIOug83Dr-81" value="" style="rhombus;whiteSpace=wrap;html=1;fontFamily=Times New Roman;fontSize=12;" parent="1" vertex="1">
          <mxGeometry x="371" y="1960" width="40" height="40" as="geometry" />
        </mxCell>
        <mxCell id="LpmMic6K0dAvIOug83Dr-90" value="" style="endArrow=classic;html=1;rounded=0;exitX=0.483;exitY=1.007;exitDx=0;exitDy=0;entryX=0.5;entryY=0;entryDx=0;entryDy=0;exitPerimeter=0;fontFamily=Times New Roman;fontSize=12;" parent="1" source="LpmMic6K0dAvIOug83Dr-80" target="LpmMic6K0dAvIOug83Dr-81" edge="1">
          <mxGeometry width="50" height="50" relative="1" as="geometry">
            <mxPoint x="332.25" y="2150" as="sourcePoint" />
            <mxPoint x="382.25" y="2100" as="targetPoint" />
          </mxGeometry>
        </mxCell>
        <mxCell id="LpmMic6K0dAvIOug83Dr-93" value="" style="endArrow=classic;html=1;rounded=0;exitX=0.481;exitY=0.994;exitDx=0;exitDy=0;entryX=0.477;entryY=0.008;entryDx=0;entryDy=0;exitPerimeter=0;entryPerimeter=0;fontFamily=Times New Roman;fontSize=12;" parent="1" target="LpmMic6K0dAvIOug83Dr-79" edge="1" source="LpmMic6K0dAvIOug83Dr-78">
          <mxGeometry width="50" height="50" relative="1" as="geometry">
            <mxPoint x="392.51500000000004" y="1749.2399999999998" as="sourcePoint" />
            <mxPoint x="392.98999999999995" y="1830.0000000000002" as="targetPoint" />
          </mxGeometry>
        </mxCell>
        <mxCell id="LpmMic6K0dAvIOug83Dr-79" value="Отправка сообщения LLM" style="rounded=1;whiteSpace=wrap;html=1;fontFamily=Times New Roman;fontSize=12;" parent="1" vertex="1">
          <mxGeometry x="346.5" y="1780" width="93.5" height="60" as="geometry" />
        </mxCell>
        <mxCell id="LpmMic6K0dAvIOug83Dr-94" value="" style="endArrow=classic;html=1;rounded=0;exitX=0.485;exitY=1.023;exitDx=0;exitDy=0;exitPerimeter=0;entryX=0.488;entryY=-0.003;entryDx=0;entryDy=0;entryPerimeter=0;fontFamily=Times New Roman;fontSize=12;" parent="1" source="LpmMic6K0dAvIOug83Dr-79" target="LpmMic6K0dAvIOug83Dr-80" edge="1">
          <mxGeometry width="50" height="50" relative="1" as="geometry">
            <mxPoint x="333" y="1830" as="sourcePoint" />
            <mxPoint x="383" y="1780" as="targetPoint" />
          </mxGeometry>
        </mxCell>
        <mxCell id="LpmMic6K0dAvIOug83Dr-95" value="" style="endArrow=classic;html=1;rounded=0;exitX=1;exitY=0.5;exitDx=0;exitDy=0;entryX=1;entryY=0.5;entryDx=0;entryDy=0;fontFamily=Times New Roman;fontSize=12;" parent="1" source="LpmMic6K0dAvIOug83Dr-78" target="LpmMic6K0dAvIOug83Dr-81" edge="1">
          <mxGeometry width="50" height="50" relative="1" as="geometry">
            <mxPoint x="503" y="1840" as="sourcePoint" />
            <mxPoint x="553" y="1790" as="targetPoint" />
            <Array as="points">
              <mxPoint x="503" y="1730" />
              <mxPoint x="503" y="1980" />
            </Array>
          </mxGeometry>
        </mxCell>
        <mxCell id="LpmMic6K0dAvIOug83Dr-96" value="Чат с LLM" style="shape=umlFrame;whiteSpace=wrap;html=1;pointerEvents=0;width=137;height=30;fontFamily=Times New Roman;fontSize=12;" parent="1" vertex="1">
          <mxGeometry x="224" y="2038" width="331" height="252" as="geometry" />
        </mxCell>
        <mxCell id="LpmMic6K0dAvIOug83Dr-98" value="Скачивание отчета" style="rounded=1;whiteSpace=wrap;html=1;fontFamily=Times New Roman;fontSize=12;" parent="1" vertex="1">
          <mxGeometry x="342.5" y="2218" width="97.5" height="42" as="geometry" />
        </mxCell>
        <mxCell id="LpmMic6K0dAvIOug83Dr-102" value="Сохранение отчета" style="rounded=1;whiteSpace=wrap;html=1;fontFamily=Times New Roman;fontSize=12;" parent="1" vertex="1">
          <mxGeometry x="343.49" y="2150" width="96.51" height="40" as="geometry" />
        </mxCell>
        <mxCell id="LpmMic6K0dAvIOug83Dr-103" value="" style="endArrow=classic;html=1;rounded=0;entryX=0.488;entryY=-0.003;entryDx=0;entryDy=0;entryPerimeter=0;fontFamily=Times New Roman;fontSize=12;exitX=0.486;exitY=1.006;exitDx=0;exitDy=0;exitPerimeter=0;" parent="1" source="LpmMic6K0dAvIOug83Dr-102" target="LpmMic6K0dAvIOug83Dr-98" edge="1">
          <mxGeometry width="50" height="50" relative="1" as="geometry">
            <mxPoint x="390" y="2190" as="sourcePoint" />
            <mxPoint x="381.25" y="2158" as="targetPoint" />
          </mxGeometry>
        </mxCell>
        <mxCell id="LpmMic6K0dAvIOug83Dr-105" value="Создание отчета" style="rounded=1;whiteSpace=wrap;html=1;fontFamily=Times New Roman;fontSize=12;" parent="1" vertex="1">
          <mxGeometry x="342.5" y="2080" width="98.75" height="40" as="geometry" />
        </mxCell>
        <mxCell id="LpmMic6K0dAvIOug83Dr-106" value="" style="endArrow=classic;html=1;rounded=0;fontFamily=Times New Roman;fontSize=12;" parent="1" edge="1">
          <mxGeometry width="50" height="50" relative="1" as="geometry">
            <mxPoint x="390" y="2120" as="sourcePoint" />
            <mxPoint x="390" y="2150" as="targetPoint" />
          </mxGeometry>
        </mxCell>
        <mxCell id="LpmMic6K0dAvIOug83Dr-107" value="" style="endArrow=classic;html=1;rounded=0;exitX=0.484;exitY=0.996;exitDx=0;exitDy=0;exitPerimeter=0;entryX=0.5;entryY=0;entryDx=0;entryDy=0;fontFamily=Times New Roman;fontSize=12;" parent="1" source="LpmMic6K0dAvIOug83Dr-98" target="LpmMic6K0dAvIOug83Dr-108" edge="1">
          <mxGeometry width="50" height="50" relative="1" as="geometry">
            <mxPoint x="211.25" y="2448" as="sourcePoint" />
            <mxPoint x="391.25" y="2308" as="targetPoint" />
          </mxGeometry>
        </mxCell>
        <mxCell id="LpmMic6K0dAvIOug83Dr-108" value="" style="ellipse;html=1;shape=endState;fillColor=#000000;strokeColor=default;fontFamily=Times New Roman;fontSize=12;" parent="1" vertex="1">
          <mxGeometry x="374.5" y="2308" width="30" height="30" as="geometry" />
        </mxCell>
        <mxCell id="LpmMic6K0dAvIOug83Dr-110" value="Да" style="text;html=1;align=center;verticalAlign=middle;resizable=0;points=[];autosize=1;strokeColor=none;fillColor=none;fontFamily=Times New Roman;fontSize=12;" parent="1" vertex="1">
          <mxGeometry x="300" y="198" width="40" height="30" as="geometry" />
        </mxCell>
        <mxCell id="LpmMic6K0dAvIOug83Dr-111" value="Нет" style="text;html=1;align=center;verticalAlign=middle;resizable=0;points=[];autosize=1;strokeColor=none;fillColor=none;fontFamily=Times New Roman;fontSize=12;" parent="1" vertex="1">
          <mxGeometry x="454.37" y="198" width="40" height="30" as="geometry" />
        </mxCell>
        <mxCell id="LpmMic6K0dAvIOug83Dr-114" value="Нет" style="text;html=1;align=center;verticalAlign=middle;resizable=0;points=[];autosize=1;strokeColor=none;fillColor=none;fontFamily=Times New Roman;fontSize=12;" parent="1" vertex="1">
          <mxGeometry x="488.37" y="1228" width="40" height="30" as="geometry" />
        </mxCell>
        <mxCell id="LpmMic6K0dAvIOug83Dr-115" value="Да" style="text;html=1;align=center;verticalAlign=middle;resizable=0;points=[];autosize=1;strokeColor=none;fillColor=none;fontFamily=Times New Roman;fontSize=12;" parent="1" vertex="1">
          <mxGeometry x="280" y="1228" width="40" height="30" as="geometry" />
        </mxCell>
      </root>
    </mxGraphModel>
  </diagram>
</mxfile>
